# xmcd CD database file
#
# Track frame offsets:
#	150
#	18626
#	42796
#	52546
#	93943
#	121934
#	129216
#	156544
#	174105
#	206513
#	224015
#	246224
#
# Disc length: 3383 seconds
#
# Revision: 0
# Processed by: cddbd v1.5.2PL0 Copyright (c) Steve Scherf et al.
# Submitted via: CDex 1.51
#
DISCID=990d350c
DTITLE=Salesny/Schabata/Preuschl and Herbert Joos - Salesny/Schabata/Preuschl and Herbert Joos
DYEAR=2007
DGENRE=Jazz
TTITLE0=Sound Stone
TTITLE1=Tahmine
TTITLE2=Wienerwald Impressions
TTITLE3=Time Out
TTITLE4=Player
TTITLE5=Strictly Improvised 
TTITLE6=100 Years
TTITLE7=Landscape 2
TTITLE8=Stuffed Chicken
TTITLE9=Landscape 1
TTITLE10=Circus Tomate
TTITLE11=Epilog
EXTD=YEAR: 2007
EXTT0=
EXTT1=
EXTT2=
EXTT3=
EXTT4=
EXTT5=
EXTT6=
EXTT7=
EXTT8=
EXTT9=
EXTT10=
EXTT11=
PLAYORDER=
